<mxfile host="app.diagrams.net" modified="2022-04-01T12:58:59.950Z" agent="5.0 (Windows NT 10.0; Win64; x64) AppleWebKit/537.36 (KHTML, like Gecko) Chrome/98.0.4758.109 Safari/537.36 OPR/84.0.4316.31" etag="PyyZGIV9c8pHCTZPF7mB" version="17.4.0" type="github">
  <diagram name="Page-1" id="2a216829-ef6e-dabb-86c1-c78162f3ba2b">
    <mxGraphModel dx="1382" dy="774" grid="1" gridSize="10" guides="1" tooltips="1" connect="1" arrows="1" fold="1" page="1" pageScale="1" pageWidth="850" pageHeight="1100" background="none" math="0" shadow="0">
      <root>
        <mxCell id="0" />
        <mxCell id="1" parent="0" />
        <mxCell id="dqU5Dyr8MQ7zKgZwAmgb-1" value="" style="rounded=0;whiteSpace=wrap;html=1;" vertex="1" parent="1">
          <mxGeometry x="10" y="50" width="830" height="1040" as="geometry" />
        </mxCell>
        <mxCell id="dqU5Dyr8MQ7zKgZwAmgb-4" value="PERAKENDE SCRAPER HUB -&amp;nbsp;STRUCTURE" style="text;strokeColor=none;fillColor=none;html=1;fontSize=24;fontStyle=1;verticalAlign=middle;align=center;" vertex="1" parent="1">
          <mxGeometry x="375" y="10" width="100" height="30" as="geometry" />
        </mxCell>
        <mxCell id="dqU5Dyr8MQ7zKgZwAmgb-7" value=".\main.py " style="swimlane;" vertex="1" parent="1">
          <mxGeometry x="40" y="100" width="480" height="630" as="geometry">
            <mxRectangle x="40" y="100" width="90" height="23" as="alternateBounds" />
          </mxGeometry>
        </mxCell>
        <mxCell id="dqU5Dyr8MQ7zKgZwAmgb-9" value="Sql ve json querylerinin insert ve update edilmesi için havuza atılıyor." style="rounded=1;whiteSpace=wrap;html=1;" vertex="1" parent="dqU5Dyr8MQ7zKgZwAmgb-7">
          <mxGeometry x="10" y="60" width="450" height="70" as="geometry" />
        </mxCell>
        <mxCell id="dqU5Dyr8MQ7zKgZwAmgb-10" value="QueryPool" style="text;html=1;strokeColor=none;fillColor=none;align=center;verticalAlign=middle;whiteSpace=wrap;rounded=0;fontStyle=1;fontSize=13;" vertex="1" parent="dqU5Dyr8MQ7zKgZwAmgb-7">
          <mxGeometry x="20" y="30" width="80" height="30" as="geometry" />
        </mxCell>
        <mxCell id="dqU5Dyr8MQ7zKgZwAmgb-15" value="" style="whiteSpace=wrap;html=1;aspect=fixed;" vertex="1" parent="dqU5Dyr8MQ7zKgZwAmgb-7">
          <mxGeometry x="10" y="168.75" width="101.25" height="101.25" as="geometry" />
        </mxCell>
        <mxCell id="dqU5Dyr8MQ7zKgZwAmgb-16" value="" style="whiteSpace=wrap;html=1;aspect=fixed;" vertex="1" parent="dqU5Dyr8MQ7zKgZwAmgb-7">
          <mxGeometry x="123.75" y="167.5" width="102.5" height="102.5" as="geometry" />
        </mxCell>
        <mxCell id="dqU5Dyr8MQ7zKgZwAmgb-17" value="DB brands_info tablosundaki cekilecek kolonu &quot;True&quot; olan markaları döndürür. Bu genellikle hedef scraperları çalıştırmak için kullanılır." style="whiteSpace=wrap;html=1;aspect=fixed;" vertex="1" parent="dqU5Dyr8MQ7zKgZwAmgb-7">
          <mxGeometry x="237.5" y="167.5" width="122.5" height="122.5" as="geometry" />
        </mxCell>
        <mxCell id="dqU5Dyr8MQ7zKgZwAmgb-18" value="Python&#39;ın kullandığın chromedriver.exe ile sistemdeki chrome browser&#39;ın versiyonuna otomatik güncelleyen bir class." style="rounded=1;whiteSpace=wrap;html=1;" vertex="1" parent="dqU5Dyr8MQ7zKgZwAmgb-7">
          <mxGeometry x="12.5" y="450" width="450" height="60" as="geometry" />
        </mxCell>
        <mxCell id="dqU5Dyr8MQ7zKgZwAmgb-19" value="Driver Updater" style="text;html=1;strokeColor=none;fillColor=none;align=center;verticalAlign=middle;whiteSpace=wrap;rounded=0;fontStyle=1;fontSize=13;" vertex="1" parent="dqU5Dyr8MQ7zKgZwAmgb-7">
          <mxGeometry x="12.5" y="420" width="130" height="30" as="geometry" />
        </mxCell>
        <mxCell id="dqU5Dyr8MQ7zKgZwAmgb-20" value="Run()" style="text;html=1;strokeColor=none;fillColor=none;align=center;verticalAlign=middle;whiteSpace=wrap;rounded=0;" vertex="1" parent="dqU5Dyr8MQ7zKgZwAmgb-7">
          <mxGeometry x="35" y="140" width="70" height="30" as="geometry" />
        </mxCell>
        <mxCell id="dqU5Dyr8MQ7zKgZwAmgb-22" value="slice_list()" style="text;html=1;strokeColor=none;fillColor=none;align=center;verticalAlign=middle;whiteSpace=wrap;rounded=0;" vertex="1" parent="dqU5Dyr8MQ7zKgZwAmgb-7">
          <mxGeometry x="132.5" y="140" width="85" height="30" as="geometry" />
        </mxCell>
        <mxCell id="dqU5Dyr8MQ7zKgZwAmgb-23" value="get_selected_brands()" style="text;html=1;strokeColor=none;fillColor=none;align=center;verticalAlign=middle;whiteSpace=wrap;rounded=0;" vertex="1" parent="dqU5Dyr8MQ7zKgZwAmgb-7">
          <mxGeometry x="190" y="140" width="200" height="30" as="geometry" />
        </mxCell>
        <mxCell id="dqU5Dyr8MQ7zKgZwAmgb-25" value="hata veren scraperlar error.txt dosyasına yazılır. Bu fonk. error.txt içindeki scraperları tekrardan çalıştırır." style="whiteSpace=wrap;html=1;aspect=fixed;" vertex="1" parent="dqU5Dyr8MQ7zKgZwAmgb-7">
          <mxGeometry x="370" y="166.25" width="105" height="105" as="geometry" />
        </mxCell>
        <mxCell id="dqU5Dyr8MQ7zKgZwAmgb-26" value="reRunErrorBrands()" style="text;html=1;strokeColor=none;fillColor=none;align=center;verticalAlign=middle;whiteSpace=wrap;rounded=0;" vertex="1" parent="dqU5Dyr8MQ7zKgZwAmgb-7">
          <mxGeometry x="380" y="140" width="60" height="30" as="geometry" />
        </mxCell>
        <mxCell id="dqU5Dyr8MQ7zKgZwAmgb-28" value="&lt;p style=&quot;line-height: 1.3&quot;&gt;&lt;/p&gt;&lt;h1 style=&quot;line-height: 0.7 ; font-size: 16px&quot;&gt;&lt;font style=&quot;font-size: 16px&quot;&gt;*Detaylı Açıklama&lt;/font&gt;&lt;/h1&gt;&lt;p style=&quot;font-size: 14px&quot;&gt;Bu yapı sistemin ana parçasıdır. Bütün scraperlar bu yapı içinde programatik olarak çalıştırılır. Database ve scraper arasındaki köprü görevi görür.&lt;/p&gt;&lt;p&gt;&lt;/p&gt;" style="text;html=1;strokeColor=none;fillColor=none;spacing=5;spacingTop=-20;whiteSpace=wrap;overflow=hidden;rounded=0;" vertex="1" parent="dqU5Dyr8MQ7zKgZwAmgb-7">
          <mxGeometry x="12.5" y="530" width="465" height="80" as="geometry" />
        </mxCell>
        <mxCell id="dqU5Dyr8MQ7zKgZwAmgb-39" value="Scrapers" style="swimlane;startSize=20;horizontal=1;containerType=tree;newEdgeStyle={&quot;edgeStyle&quot;:&quot;elbowEdgeStyle&quot;,&quot;startArrow&quot;:&quot;none&quot;,&quot;endArrow&quot;:&quot;none&quot;};fontSize=13;fontColor=none;strokeColor=default;fillColor=none;" vertex="1" parent="1">
          <mxGeometry x="540" y="100" width="280" height="220" as="geometry" />
        </mxCell>
        <UserObject label=".\projects" treeRoot="1" id="dqU5Dyr8MQ7zKgZwAmgb-42">
          <mxCell style="whiteSpace=wrap;html=1;align=center;treeFolding=1;treeMoving=1;newEdgeStyle={&quot;edgeStyle&quot;:&quot;elbowEdgeStyle&quot;,&quot;startArrow&quot;:&quot;none&quot;,&quot;endArrow&quot;:&quot;none&quot;};fontSize=13;fontColor=none;strokeColor=default;fillColor=none;" vertex="1" parent="dqU5Dyr8MQ7zKgZwAmgb-39">
            <mxGeometry x="80" y="40" width="120" height="60" as="geometry" />
          </mxCell>
        </UserObject>
        <mxCell id="dqU5Dyr8MQ7zKgZwAmgb-45" value=".\.\Emir" style="whiteSpace=wrap;html=1;align=center;verticalAlign=middle;treeFolding=1;treeMoving=1;newEdgeStyle={&quot;edgeStyle&quot;:&quot;elbowEdgeStyle&quot;,&quot;startArrow&quot;:&quot;none&quot;,&quot;endArrow&quot;:&quot;none&quot;};fontSize=13;fontColor=none;strokeColor=default;fillColor=none;" vertex="1" parent="1">
          <mxGeometry x="690" y="240" width="60" height="60" as="geometry" />
        </mxCell>
        <mxCell id="dqU5Dyr8MQ7zKgZwAmgb-46" value=".\.\Emre" style="whiteSpace=wrap;html=1;align=center;verticalAlign=middle;treeFolding=1;treeMoving=1;newEdgeStyle={&quot;edgeStyle&quot;:&quot;elbowEdgeStyle&quot;,&quot;startArrow&quot;:&quot;none&quot;,&quot;endArrow&quot;:&quot;none&quot;};fontSize=13;fontColor=none;strokeColor=default;fillColor=none;" vertex="1" parent="1">
          <mxGeometry x="760" y="240" width="50" height="60" as="geometry" />
        </mxCell>
        <mxCell id="dqU5Dyr8MQ7zKgZwAmgb-48" value=".\.\Gurkan" style="whiteSpace=wrap;html=1;align=center;verticalAlign=middle;treeFolding=1;treeMoving=1;newEdgeStyle={&quot;edgeStyle&quot;:&quot;elbowEdgeStyle&quot;,&quot;startArrow&quot;:&quot;none&quot;,&quot;endArrow&quot;:&quot;none&quot;};fontSize=13;fontColor=none;strokeColor=default;fillColor=none;" vertex="1" parent="1">
          <mxGeometry x="550" y="240" width="60" height="60" as="geometry" />
        </mxCell>
        <mxCell id="dqU5Dyr8MQ7zKgZwAmgb-49" value=".\.\Guven" style="whiteSpace=wrap;html=1;align=center;verticalAlign=middle;treeFolding=1;treeMoving=1;newEdgeStyle={&quot;edgeStyle&quot;:&quot;elbowEdgeStyle&quot;,&quot;startArrow&quot;:&quot;none&quot;,&quot;endArrow&quot;:&quot;none&quot;};fontSize=13;fontColor=none;strokeColor=default;fillColor=none;" vertex="1" parent="1">
          <mxGeometry x="620" y="240" width="60" height="60" as="geometry" />
        </mxCell>
        <mxCell id="dqU5Dyr8MQ7zKgZwAmgb-50" value="" style="endArrow=none;html=1;rounded=0;fontSize=13;fontColor=none;entryX=0.5;entryY=1;entryDx=0;entryDy=0;exitX=0.5;exitY=0;exitDx=0;exitDy=0;" edge="1" parent="1" source="dqU5Dyr8MQ7zKgZwAmgb-45" target="dqU5Dyr8MQ7zKgZwAmgb-42">
          <mxGeometry width="50" height="50" relative="1" as="geometry">
            <mxPoint x="410" y="300" as="sourcePoint" />
            <mxPoint x="460" y="250" as="targetPoint" />
          </mxGeometry>
        </mxCell>
        <mxCell id="dqU5Dyr8MQ7zKgZwAmgb-53" value="" style="endArrow=none;html=1;rounded=0;fontSize=13;fontColor=none;exitX=0.5;exitY=0;exitDx=0;exitDy=0;" edge="1" parent="1" source="dqU5Dyr8MQ7zKgZwAmgb-49">
          <mxGeometry width="50" height="50" relative="1" as="geometry">
            <mxPoint x="410" y="300" as="sourcePoint" />
            <mxPoint x="680" y="200" as="targetPoint" />
          </mxGeometry>
        </mxCell>
        <mxCell id="dqU5Dyr8MQ7zKgZwAmgb-54" value="" style="endArrow=none;html=1;rounded=0;fontSize=13;fontColor=none;entryX=0.5;entryY=1;entryDx=0;entryDy=0;exitX=0.5;exitY=0;exitDx=0;exitDy=0;" edge="1" parent="1" source="dqU5Dyr8MQ7zKgZwAmgb-46" target="dqU5Dyr8MQ7zKgZwAmgb-42">
          <mxGeometry width="50" height="50" relative="1" as="geometry">
            <mxPoint x="720" y="250" as="sourcePoint" />
            <mxPoint x="770" y="200" as="targetPoint" />
          </mxGeometry>
        </mxCell>
        <mxCell id="dqU5Dyr8MQ7zKgZwAmgb-55" value="" style="endArrow=none;html=1;rounded=0;fontSize=13;fontColor=none;entryX=0.5;entryY=1;entryDx=0;entryDy=0;exitX=0.5;exitY=0;exitDx=0;exitDy=0;" edge="1" parent="1" source="dqU5Dyr8MQ7zKgZwAmgb-48" target="dqU5Dyr8MQ7zKgZwAmgb-42">
          <mxGeometry width="50" height="50" relative="1" as="geometry">
            <mxPoint x="570" y="280" as="sourcePoint" />
            <mxPoint x="620" y="230" as="targetPoint" />
          </mxGeometry>
        </mxCell>
        <mxCell id="dqU5Dyr8MQ7zKgZwAmgb-59" value="İki standartlı bir yapıdır. Eski yapısı querPool&#39;a raw sql query göndermektedir.&lt;br&gt;" style="rounded=1;whiteSpace=wrap;html=1;fontSize=13;fontColor=none;strokeColor=default;fillColor=none;" vertex="1" parent="1">
          <mxGeometry x="535" y="490" width="90" height="240" as="geometry" />
        </mxCell>
        <mxCell id="dqU5Dyr8MQ7zKgZwAmgb-60" value="&lt;br&gt;Scrape edilen veriler sabit formatlı dict yapısına kaydediliyor.&amp;nbsp;&lt;br&gt;Daha sonrasında createQuery fonksiyonu sayesinde dinamik olarak sql insert querysi oluşturluyor" style="rounded=1;whiteSpace=wrap;html=1;fontSize=13;fontColor=none;strokeColor=default;fillColor=none;" vertex="1" parent="1">
          <mxGeometry x="720" y="490" width="110" height="240" as="geometry" />
        </mxCell>
        <mxCell id="dqU5Dyr8MQ7zKgZwAmgb-62" value="sqlite key - value şeklinde nested liste gönderiliyor." style="rounded=1;whiteSpace=wrap;html=1;fontSize=13;fontColor=none;strokeColor=default;fillColor=none;" vertex="1" parent="1">
          <mxGeometry x="630" y="490" width="80" height="240" as="geometry" />
        </mxCell>
        <mxCell id="dqU5Dyr8MQ7zKgZwAmgb-65" value="" style="endArrow=classic;html=1;rounded=0;fontSize=13;fontColor=none;exitX=0.45;exitY=1;exitDx=0;exitDy=0;exitPerimeter=0;" edge="1" parent="1" source="dqU5Dyr8MQ7zKgZwAmgb-72">
          <mxGeometry width="50" height="50" relative="1" as="geometry">
            <mxPoint x="410" y="440" as="sourcePoint" />
            <mxPoint x="576" y="490" as="targetPoint" />
          </mxGeometry>
        </mxCell>
        <mxCell id="dqU5Dyr8MQ7zKgZwAmgb-69" value="scrapers" style="swimlane;fontStyle=0;childLayout=stackLayout;horizontal=1;startSize=30;horizontalStack=0;resizeParent=1;resizeParentMax=0;resizeLast=0;collapsible=1;marginBottom=0;fontSize=13;fontColor=none;strokeColor=default;fillColor=none;" vertex="1" parent="1">
          <mxGeometry x="530" y="330" width="90" height="130" as="geometry" />
        </mxCell>
        <mxCell id="dqU5Dyr8MQ7zKgZwAmgb-70" value="A websitesi" style="text;strokeColor=none;fillColor=none;align=left;verticalAlign=middle;spacingLeft=4;spacingRight=4;overflow=hidden;points=[[0,0.5],[1,0.5]];portConstraint=eastwest;rotatable=0;fontSize=13;fontColor=none;" vertex="1" parent="dqU5Dyr8MQ7zKgZwAmgb-69">
          <mxGeometry y="30" width="90" height="40" as="geometry" />
        </mxCell>
        <mxCell id="dqU5Dyr8MQ7zKgZwAmgb-71" value="B websitesi" style="text;strokeColor=none;fillColor=none;align=left;verticalAlign=middle;spacingLeft=4;spacingRight=4;overflow=hidden;points=[[0,0.5],[1,0.5]];portConstraint=eastwest;rotatable=0;fontSize=13;fontColor=none;" vertex="1" parent="dqU5Dyr8MQ7zKgZwAmgb-69">
          <mxGeometry y="70" width="90" height="30" as="geometry" />
        </mxCell>
        <mxCell id="dqU5Dyr8MQ7zKgZwAmgb-72" value="C websitesi" style="text;strokeColor=none;fillColor=none;align=left;verticalAlign=middle;spacingLeft=4;spacingRight=4;overflow=hidden;points=[[0,0.5],[1,0.5]];portConstraint=eastwest;rotatable=0;fontSize=13;fontColor=none;" vertex="1" parent="dqU5Dyr8MQ7zKgZwAmgb-69">
          <mxGeometry y="100" width="90" height="30" as="geometry" />
        </mxCell>
        <mxCell id="dqU5Dyr8MQ7zKgZwAmgb-73" value="scrapers" style="swimlane;fontStyle=0;childLayout=stackLayout;horizontal=1;startSize=30;horizontalStack=0;resizeParent=1;resizeParentMax=0;resizeLast=0;collapsible=1;marginBottom=0;fontSize=13;fontColor=none;strokeColor=default;fillColor=none;" vertex="1" parent="1">
          <mxGeometry x="630" y="330" width="60" height="130" as="geometry" />
        </mxCell>
        <mxCell id="dqU5Dyr8MQ7zKgZwAmgb-74" value="D web s." style="text;strokeColor=none;fillColor=none;align=left;verticalAlign=middle;spacingLeft=4;spacingRight=4;overflow=hidden;points=[[0,0.5],[1,0.5]];portConstraint=eastwest;rotatable=0;fontSize=13;fontColor=none;" vertex="1" parent="dqU5Dyr8MQ7zKgZwAmgb-73">
          <mxGeometry y="30" width="60" height="40" as="geometry" />
        </mxCell>
        <mxCell id="dqU5Dyr8MQ7zKgZwAmgb-75" value="E web s." style="text;strokeColor=none;fillColor=none;align=left;verticalAlign=middle;spacingLeft=4;spacingRight=4;overflow=hidden;points=[[0,0.5],[1,0.5]];portConstraint=eastwest;rotatable=0;fontSize=13;fontColor=none;" vertex="1" parent="dqU5Dyr8MQ7zKgZwAmgb-73">
          <mxGeometry y="70" width="60" height="30" as="geometry" />
        </mxCell>
        <mxCell id="dqU5Dyr8MQ7zKgZwAmgb-76" value="F web s." style="text;strokeColor=none;fillColor=none;align=left;verticalAlign=middle;spacingLeft=4;spacingRight=4;overflow=hidden;points=[[0,0.5],[1,0.5]];portConstraint=eastwest;rotatable=0;fontSize=13;fontColor=none;" vertex="1" parent="dqU5Dyr8MQ7zKgZwAmgb-73">
          <mxGeometry y="100" width="60" height="30" as="geometry" />
        </mxCell>
        <mxCell id="dqU5Dyr8MQ7zKgZwAmgb-81" value="scrapers" style="swimlane;fontStyle=0;childLayout=stackLayout;horizontal=1;startSize=30;horizontalStack=0;resizeParent=1;resizeParentMax=0;resizeLast=0;collapsible=1;marginBottom=0;fontSize=13;fontColor=none;strokeColor=default;fillColor=none;" vertex="1" parent="1">
          <mxGeometry x="770" y="330" width="60" height="130" as="geometry" />
        </mxCell>
        <mxCell id="dqU5Dyr8MQ7zKgZwAmgb-82" value="J web s." style="text;strokeColor=none;fillColor=none;align=left;verticalAlign=middle;spacingLeft=4;spacingRight=4;overflow=hidden;points=[[0,0.5],[1,0.5]];portConstraint=eastwest;rotatable=0;fontSize=13;fontColor=none;" vertex="1" parent="dqU5Dyr8MQ7zKgZwAmgb-81">
          <mxGeometry y="30" width="60" height="40" as="geometry" />
        </mxCell>
        <mxCell id="dqU5Dyr8MQ7zKgZwAmgb-83" value="K web s." style="text;strokeColor=none;fillColor=none;align=left;verticalAlign=middle;spacingLeft=4;spacingRight=4;overflow=hidden;points=[[0,0.5],[1,0.5]];portConstraint=eastwest;rotatable=0;fontSize=13;fontColor=none;" vertex="1" parent="dqU5Dyr8MQ7zKgZwAmgb-81">
          <mxGeometry y="70" width="60" height="30" as="geometry" />
        </mxCell>
        <mxCell id="dqU5Dyr8MQ7zKgZwAmgb-84" value="L web s." style="text;strokeColor=none;fillColor=none;align=left;verticalAlign=middle;spacingLeft=4;spacingRight=4;overflow=hidden;points=[[0,0.5],[1,0.5]];portConstraint=eastwest;rotatable=0;fontSize=13;fontColor=none;" vertex="1" parent="dqU5Dyr8MQ7zKgZwAmgb-81">
          <mxGeometry y="100" width="60" height="30" as="geometry" />
        </mxCell>
        <mxCell id="dqU5Dyr8MQ7zKgZwAmgb-85" value="scrapers" style="swimlane;fontStyle=0;childLayout=stackLayout;horizontal=1;startSize=30;horizontalStack=0;resizeParent=1;resizeParentMax=0;resizeLast=0;collapsible=1;marginBottom=0;fontSize=13;fontColor=none;strokeColor=default;fillColor=none;" vertex="1" parent="1">
          <mxGeometry x="700" y="330" width="60" height="130" as="geometry" />
        </mxCell>
        <mxCell id="dqU5Dyr8MQ7zKgZwAmgb-86" value="G web s." style="text;strokeColor=none;fillColor=none;align=left;verticalAlign=middle;spacingLeft=4;spacingRight=4;overflow=hidden;points=[[0,0.5],[1,0.5]];portConstraint=eastwest;rotatable=0;fontSize=13;fontColor=none;" vertex="1" parent="dqU5Dyr8MQ7zKgZwAmgb-85">
          <mxGeometry y="30" width="60" height="40" as="geometry" />
        </mxCell>
        <mxCell id="dqU5Dyr8MQ7zKgZwAmgb-87" value="H web s." style="text;strokeColor=none;fillColor=none;align=left;verticalAlign=middle;spacingLeft=4;spacingRight=4;overflow=hidden;points=[[0,0.5],[1,0.5]];portConstraint=eastwest;rotatable=0;fontSize=13;fontColor=none;" vertex="1" parent="dqU5Dyr8MQ7zKgZwAmgb-85">
          <mxGeometry y="70" width="60" height="30" as="geometry" />
        </mxCell>
        <mxCell id="dqU5Dyr8MQ7zKgZwAmgb-88" value="I web s." style="text;strokeColor=none;fillColor=none;align=left;verticalAlign=middle;spacingLeft=4;spacingRight=4;overflow=hidden;points=[[0,0.5],[1,0.5]];portConstraint=eastwest;rotatable=0;fontSize=13;fontColor=none;" vertex="1" parent="dqU5Dyr8MQ7zKgZwAmgb-85">
          <mxGeometry y="100" width="60" height="30" as="geometry" />
        </mxCell>
        <mxCell id="dqU5Dyr8MQ7zKgZwAmgb-89" value="" style="endArrow=none;html=1;rounded=0;fontSize=13;fontColor=none;exitX=0.5;exitY=1;exitDx=0;exitDy=0;" edge="1" parent="1" source="dqU5Dyr8MQ7zKgZwAmgb-48" target="dqU5Dyr8MQ7zKgZwAmgb-69">
          <mxGeometry width="50" height="50" relative="1" as="geometry">
            <mxPoint x="410" y="440" as="sourcePoint" />
            <mxPoint x="460" y="390" as="targetPoint" />
          </mxGeometry>
        </mxCell>
        <mxCell id="dqU5Dyr8MQ7zKgZwAmgb-90" value="" style="endArrow=none;html=1;rounded=0;fontSize=13;fontColor=none;exitX=0.5;exitY=1;exitDx=0;exitDy=0;entryX=0.5;entryY=0;entryDx=0;entryDy=0;" edge="1" parent="1" source="dqU5Dyr8MQ7zKgZwAmgb-49" target="dqU5Dyr8MQ7zKgZwAmgb-73">
          <mxGeometry width="50" height="50" relative="1" as="geometry">
            <mxPoint x="590" y="310" as="sourcePoint" />
            <mxPoint x="588.421052631579" y="340" as="targetPoint" />
          </mxGeometry>
        </mxCell>
        <mxCell id="dqU5Dyr8MQ7zKgZwAmgb-93" value="" style="endArrow=none;html=1;rounded=0;fontSize=13;fontColor=none;exitX=0.5;exitY=1;exitDx=0;exitDy=0;entryX=0.5;entryY=0;entryDx=0;entryDy=0;" edge="1" parent="1" source="dqU5Dyr8MQ7zKgZwAmgb-45" target="dqU5Dyr8MQ7zKgZwAmgb-85">
          <mxGeometry width="50" height="50" relative="1" as="geometry">
            <mxPoint x="660" y="310" as="sourcePoint" />
            <mxPoint x="670" y="340" as="targetPoint" />
          </mxGeometry>
        </mxCell>
        <mxCell id="dqU5Dyr8MQ7zKgZwAmgb-95" value="" style="endArrow=none;html=1;rounded=0;fontSize=13;fontColor=none;exitX=0.5;exitY=1;exitDx=0;exitDy=0;entryX=0.5;entryY=0;entryDx=0;entryDy=0;" edge="1" parent="1" source="dqU5Dyr8MQ7zKgZwAmgb-46" target="dqU5Dyr8MQ7zKgZwAmgb-81">
          <mxGeometry width="50" height="50" relative="1" as="geometry">
            <mxPoint x="730" y="310" as="sourcePoint" />
            <mxPoint x="740" y="340" as="targetPoint" />
          </mxGeometry>
        </mxCell>
        <mxCell id="dqU5Dyr8MQ7zKgZwAmgb-96" value="" style="endArrow=classic;html=1;rounded=0;fontSize=13;fontColor=none;exitX=0.467;exitY=1.1;exitDx=0;exitDy=0;exitPerimeter=0;entryX=0.5;entryY=0;entryDx=0;entryDy=0;" edge="1" parent="1" source="dqU5Dyr8MQ7zKgZwAmgb-76" target="dqU5Dyr8MQ7zKgZwAmgb-62">
          <mxGeometry width="50" height="50" relative="1" as="geometry">
            <mxPoint x="650" y="510" as="sourcePoint" />
            <mxPoint x="700" y="460" as="targetPoint" />
          </mxGeometry>
        </mxCell>
        <mxCell id="dqU5Dyr8MQ7zKgZwAmgb-97" value="" style="endArrow=classic;html=1;rounded=0;fontSize=13;fontColor=none;entryX=0.5;entryY=0;entryDx=0;entryDy=0;" edge="1" parent="1" source="dqU5Dyr8MQ7zKgZwAmgb-88" target="dqU5Dyr8MQ7zKgZwAmgb-60">
          <mxGeometry width="50" height="50" relative="1" as="geometry">
            <mxPoint x="720" y="790" as="sourcePoint" />
            <mxPoint x="770" y="740" as="targetPoint" />
          </mxGeometry>
        </mxCell>
        <mxCell id="dqU5Dyr8MQ7zKgZwAmgb-98" value="" style="endArrow=classic;html=1;rounded=0;fontSize=13;fontColor=none;exitX=0.4;exitY=1.067;exitDx=0;exitDy=0;exitPerimeter=0;entryX=0.5;entryY=0;entryDx=0;entryDy=0;" edge="1" parent="1" source="dqU5Dyr8MQ7zKgZwAmgb-84" target="dqU5Dyr8MQ7zKgZwAmgb-60">
          <mxGeometry width="50" height="50" relative="1" as="geometry">
            <mxPoint x="370" y="740" as="sourcePoint" />
            <mxPoint x="420" y="690" as="targetPoint" />
          </mxGeometry>
        </mxCell>
        <mxCell id="dqU5Dyr8MQ7zKgZwAmgb-100" value="" style="label;whiteSpace=wrap;html=1;image=img/clipart/Gear_128x128.png;fontSize=13;fontColor=none;strokeColor=default;fillColor=none;" vertex="1" parent="1">
          <mxGeometry x="40" y="750" width="210" height="100" as="geometry" />
        </mxCell>
        <mxCell id="dqU5Dyr8MQ7zKgZwAmgb-101" value="&lt;h1&gt;&lt;font style=&quot;font-size: 17px&quot;&gt;Options.json&lt;/font&gt;&lt;/h1&gt;" style="text;html=1;strokeColor=none;fillColor=none;spacing=5;spacingTop=-20;whiteSpace=wrap;overflow=hidden;rounded=0;fontSize=13;fontColor=none;" vertex="1" parent="1">
          <mxGeometry x="80" y="750" width="160" height="100" as="geometry" />
        </mxCell>
        <mxCell id="dqU5Dyr8MQ7zKgZwAmgb-102" value="&lt;font style=&quot;font-size: 14px&quot;&gt;Proxy bilgilerinin olduğu json dosyası.&lt;/font&gt;" style="text;html=1;strokeColor=none;fillColor=none;align=center;verticalAlign=middle;whiteSpace=wrap;rounded=0;fontSize=17;fontColor=none;" vertex="1" parent="1">
          <mxGeometry x="90" y="790" width="160" height="50" as="geometry" />
        </mxCell>
        <mxCell id="dqU5Dyr8MQ7zKgZwAmgb-106" value="" style="shape=parallelogram;perimeter=parallelogramPerimeter;whiteSpace=wrap;html=1;fixedSize=1;fontSize=14;fontColor=none;strokeColor=default;fillColor=none;" vertex="1" parent="1">
          <mxGeometry x="530" y="750" width="190" height="100" as="geometry" />
        </mxCell>
        <mxCell id="dqU5Dyr8MQ7zKgZwAmgb-107" value="Text" style="text;html=1;strokeColor=none;fillColor=none;align=center;verticalAlign=middle;whiteSpace=wrap;rounded=0;fontSize=14;fontColor=none;" vertex="1" parent="1">
          <mxGeometry x="410" y="520" width="60" height="30" as="geometry" />
        </mxCell>
      </root>
    </mxGraphModel>
  </diagram>
</mxfile>
